HIERARCHY
ROOT Hips
{
	OFFSET -0.001795 -0.223333 0.028219
	CHANNELS 6 Xposition Yposition Zposition Zrotation Yrotation Xrotation 
	JOINT LeftUpLeg
	{
		OFFSET 0.069520 -0.091406 -0.006815
		CHANNELS 3 Zrotation Yrotation Xrotation
		JOINT LeftLeg
		{
			OFFSET 0.034277 -0.375199 -0.004496
			CHANNELS 3 Zrotation Yrotation Xrotation
			JOINT LeftFoot
			{
				OFFSET -0.013596 -0.397961 -0.043693
				CHANNELS 3 Zrotation Yrotation Xrotation
				JOINT LeftToe
				{
					OFFSET 0.026358 -0.055791 0.119288
					CHANNELS 3 Zrotation Yrotation Xrotation
					End Site
					{
						OFFSET 0.000000 0.000000 0.000000
					}
				}
			}
		}
	}
	JOINT RightUpLeg
	{
		OFFSET -0.067670 -0.090522 -0.004320
		CHANNELS 3 Zrotation Yrotation Xrotation
		JOINT RightLeg
		{
			OFFSET -0.038290 -0.382569 -0.008850
			CHANNELS 3 Zrotation Yrotation Xrotation
			JOINT RightFoot
			{
				OFFSET 0.015774 -0.398415 -0.042312
				CHANNELS 3 Zrotation Yrotation Xrotation
				JOINT RightToe
				{
					OFFSET -0.025372 -0.048144 0.123348
					CHANNELS 3 Zrotation Yrotation Xrotation
					End Site
					{
						OFFSET 0.000000 0.000000 0.000000
					}
				}
			}
		}
	}
	JOINT Spine
	{
		OFFSET -0.002533 0.108963 -0.026696
		CHANNELS 3 Zrotation Yrotation Xrotation
		JOINT Spine1
		{
			OFFSET 0.005487 0.135180 0.001092
			CHANNELS 3 Zrotation Yrotation Xrotation
			JOINT Spine2
			{
				OFFSET 0.001457 0.052922 0.025425
				CHANNELS 3 Zrotation Yrotation Xrotation
				JOINT Neck
				{
					OFFSET -0.002778 0.213870 -0.042857
					CHANNELS 3 Zrotation Yrotation Xrotation
					JOINT Head
					{
						OFFSET 0.005152 0.064970 0.051349
						CHANNELS 3 Zrotation Yrotation Xrotation
						End Site
						{
							OFFSET 0.000000 0.000000 0.000000
						}
					}
				}
				JOINT LeftShoulder
				{
					OFFSET 0.078845 0.121749 -0.034090
					CHANNELS 3 Zrotation Yrotation Xrotation
					JOINT LeftArm
					{
						OFFSET 0.090977 0.030469 -0.008868
						CHANNELS 3 Zrotation Yrotation Xrotation
						JOINT LeftForeArm
						{
							OFFSET 0.259612 -0.012772 -0.027456
							CHANNELS 3 Zrotation Yrotation Xrotation
							JOINT LeftHand
							{
								OFFSET 0.249234 0.008986 -0.001171
								CHANNELS 3 Zrotation Yrotation Xrotation
								End Site
								{
									OFFSET 0.000000 0.000000 0.000000
								}
							}
						}
					}
				}
				JOINT RightShoulder
				{
					OFFSET -0.081759 0.118833 -0.038615
					CHANNELS 3 Zrotation Yrotation Xrotation
					JOINT RightArm
					{
						OFFSET -0.096012 0.032551 -0.009143
						CHANNELS 3 Zrotation Yrotation Xrotation
						JOINT RightForeArm
						{
							OFFSET -0.253742 -0.013329 -0.021401
							CHANNELS 3 Zrotation Yrotation Xrotation
							JOINT RightHand
							{
								OFFSET -0.255298 0.007772 -0.005559
								CHANNELS 3 Zrotation Yrotation Xrotation
								End Site
								{
									OFFSET 0.000000 0.000000 0.000000
								}
							}
						}
					}
				}
			}
		}
	}
}
MOTION
Frames: 16
Frame Time: 0.050000
0.000000 0.903943 0.000000 -0.857036 -0.399254 -2.189392 5.942469 -0.014220 0.513837 -7.412895 1.771850 28.368100 8.483719 17.157107 -3.731989 0.000000 0.000000 0.000000 -4.258906 1.371287 -20.214196 7.828541 -1.393135 19.222139 -7.087489 -17.648505 3.448361 0.000000 0.000000 0.000000 6.126884 -2.195094 23.005379 -4.765331 1.784736 -23.546547 -3.510969 1.844108 27.212323 10.820053 -4.140390 -28.600404 0.000000 0.000000 0.000000 -19.020488 -10.110938 4.024417 -43.468237 -14.033203 -2.425548 -13.963489 -42.543860 7.509727 0.000000 0.000000 0.000000 26.606922 0.465015 -0.710284 50.201232 13.861066 -1.879071 7.048293 32.386734 3.655740 0.000000 0.000000 0.000000 
-0.004897 0.907715 0.024446 -0.922860 -2.124763 -2.330326 8.534849 -0.041523 -2.041256 -11.329817 4.118465 35.764145 8.285001 17.140887 0.812901 0.000000 0.000000 0.000000 -3.153184 1.536932 -19.335216 7.560341 -1.254003 21.628291 -6.499976 -16.222324 1.755771 0.000000 0.000000 0.000000 7.856970 -2.531806 23.772074 -5.638419 1.968580 -24.024108 -2.655330 2.689991 26.106955 9.767671 -3.532599 -28.472530 0.000000 0.000000 0.000000 -20.144717 -10.037874 4.001906 -43.104311 -12.284345 -2.941262 -17.365625 -44.028582 9.212750 0.000000 0.000000 0.000000 25.520402 -1.276821 -1.838049 50.435301 12.366717 -2.353048 9.877485 32.596714 4.445161 0.000000 0.000000 0.000000 
-0.007100 0.909204 0.046657 -0.681651 -3.442280 -3.854814 10.551071 0.081107 -5.499872 -14.328721 6.758274 43.256315 8.816614 18.241356 4.009663 0.000000 0.000000 0.000000 -2.721899 1.320722 -15.800420 7.818528 -1.233061 21.850005 -6.149718 -15.008938 -0.545833 0.000000 0.000000 0.000000 9.304774 -2.811177 24.738485 -5.660752 1.952141 -24.732105 -3.205926 3.488048 26.819060 8.803411 -3.127763 -27.636771 0.000000 0.000000 0.000000 -21.848325 -8.939208 3.372158 -40.993612 -12.318535 -2.882360 -16.942754 -44.876003 9.153693 0.000000 0.000000 0.000000 24.782912 -1.964238 -2.117264 49.944266 11.552224 -2.792233 11.869646 33.429149 5.189894 0.000000 0.000000 0.000000 
-0.006463 0.912625 0.067215 -0.012541 -5.461932 -5.562625 11.520148 0.280811 -7.384015 -16.853084 9.028663 45.135634 10.116248 20.529395 3.917360 0.000000 0.000000 0.000000 -2.941513 1.009300 -12.213772 7.408367 -0.954523 21.826136 -5.477959 -13.154178 -1.066823 0.000000 0.000000 0.000000 9.395834 -2.810393 26.499469 -6.000333 2.040169 -24.196455 -3.330130 4.244336 26.379205 10.736657 -4.457560 -26.843040 0.000000 0.000000 0.000000 -21.706284 -9.150512 3.549004 -40.837513 -11.692381 -3.054965 -17.906148 -47.613569 10.253349 0.000000 0.000000 0.000000 25.709954 -2.297434 -2.501002 48.751084 11.990808 -2.549435 12.634288 34.840636 5.641991 0.000000 0.000000 0.000000 
-0.003381 0.916276 0.086497 0.644620 -7.150990 -6.912702 11.215104 0.388315 -9.891632 -16.642195 9.149667 43.878338 10.787932 21.681393 3.592501 0.000000 0.000000 0.000000 -3.476911 0.701025 -8.814703 6.496839 -0.568997 21.605569 -4.509477 -10.465921 -1.686529 0.000000 0.000000 0.000000 9.284877 -2.755370 28.175992 -5.660293 1.933790 -24.701369 -2.848359 4.403432 26.193494 10.071318 -4.456512 -25.244727 0.000000 0.000000 0.000000 -22.243663 -9.577474 4.005944 -40.474318 -11.006317 -3.313153 -19.306372 -50.583386 11.764373 0.000000 0.000000 0.000000 24.732275 -2.446932 -2.737335 48.642288 11.731534 -2.581625 13.771546 37.464614 6.448087 0.000000 0.000000 0.000000 
0.001706 0.920348 0.104917 0.849598 -8.441455 -7.054019 10.936750 0.449405 -12.222054 -14.886536 7.545415 38.852728 10.529283 21.151683 3.966908 0.000000 0.000000 0.000000 -3.908288 0.522561 -6.537214 5.774669 -0.310288 20.528948 -3.820266 -8.466648 -2.148381 0.000000 0.000000 0.000000 9.211235 -2.665680 28.683856 -5.249190 1.811653 -24.281120 -2.959112 4.638638 25.531965 9.412525 -4.179804 -24.702889 0.000000 0.000000 0.000000 -22.743960 -9.480162 4.072744 -40.646890 -11.199714 -3.258236 -19.330181 -52.607911 12.415290 0.000000 0.000000 0.000000 25.473838 -2.741038 -3.156846 47.824648 11.551952 -2.542066 13.292566 39.243120 6.571495 0.000000 0.000000 0.000000 
0.008389 0.922844 0.122928 1.226403 -9.366312 -7.052675 10.102850 0.370277 -12.591257 -12.232341 5.087107 30.411826 9.877128 19.990174 3.639749 0.000000 0.000000 0.000000 -4.645864 0.404575 -4.845782 4.912683 -0.039652 20.118602 -3.005497 -6.205344 -2.399340 0.000000 0.000000 0.000000 9.628566 -2.673782 28.691925 -5.968130 1.978778 -24.524628 -2.413070 4.312097 25.812750 8.782418 -4.055621 -23.940445 0.000000 0.000000 0.000000 -22.332050 -9.248819 4.218804 -40.940854 -11.639668 -3.250415 -20.531343 -55.256499 14.025546 0.000000 0.000000 0.000000 25.130708 -2.784484 -3.406357 47.703256 10.962407 -2.725713 14.114103 40.400820 7.012009 0.000000 0.000000 0.000000 
0.016342 0.922718 0.140758 1.137251 -10.427026 -6.484845 9.721382 0.341977 -12.687375 -9.704303 3.101644 21.394329 8.481441 17.457296 2.765682 0.000000 0.000000 0.000000 -4.865732 0.339531 -3.469129 4.405440 0.093510 18.951564 -2.637988 -4.630368 -3.382944 0.000000 0.000000 0.000000 9.176305 -2.483652 28.441307 -5.441422 1.814840 -24.570813 -2.200324 5.071993 25.488088 8.598061 -3.991275 -23.207546 0.000000 0.000000 0.000000 -22.125617 -9.618782 4.381286 -40.454211 -12.982998 -2.773541 -20.387065 -56.447605 14.261712 0.000000 0.000000 0.000000 25.494380 -2.517692 -3.253595 46.476739 11.075278 -2.638550 15.201779 39.431409 7.170064 0.000000 0.000000 0.000000 
0.025354 0.921193 0.158812 1.194593 -10.727737 -6.305263 8.705621 0.190870 -12.603452 -7.007486 1.639527 13.676454 7.005308 14.675237 3.385447 0.000000 0.000000 0.000000 -5.701215 0.244613 -1.105305 4.592559 -0.041351 16.542760 -2.360707 -3.248939 -4.350384 0.000000 0.000000 0.000000 8.512453 -2.343314 28.922039 -5.347609 1.781554 -24.753075 -2.263165 5.358109 25.760840 9.900688 -4.657949 -24.117407 0.000000 0.000000 0.000000 -21.355268 -10.658058 4.925761 -40.081057 -15.313958 -2.040209 -17.153771 -59.236060 13.215793 0.000000 0.000000 0.000000 26.463301 -1.841760 -2.908155 45.618797 11.493832 -2.492161 12.954701 38.413271 6.176986 0.000000 0.000000 0.000000 
0.035819 0.918073 0.176989 1.117790 -11.664627 -5.806171 8.216746 0.139198 -13.040133 -5.177203 0.998750 9.531817 5.084956 11.196322 6.163970 0.000000 0.000000 0.000000 -6.098782 0.228145 0.279017 3.800040 0.092844 14.881459 -2.165431 -1.949680 -5.321743 0.000000 0.000000 0.000000 7.372531 -2.028239 29.126866 -5.052321 1.681268 -24.833260 -1.552539 6.891852 25.963422 10.735572 -4.939610 -24.541324 0.000000 0.000000 0.000000 -20.838237 -12.416787 5.609782 -38.933349 -18.306269 -1.037623 -14.289565 -59.242524 11.267349 0.000000 0.000000 0.000000 28.140374 -1.313772 -2.421994 44.316669 12.792811 -2.122523 10.009987 35.717997 4.790565 0.000000 0.000000 0.000000 
0.047720 0.914314 0.195555 0.541364 -12.327741 -5.088448 7.806985 0.086033 -13.288943 -5.132796 1.032634 10.126007 4.542663 10.265801 7.214493 0.000000 0.000000 0.000000 -6.453334 0.272324 0.109812 3.802414 0.129398 15.232068 -2.897178 -2.924434 -6.778696 0.000000 0.000000 0.000000 6.744864 -1.853184 29.153577 -4.609063 1.549725 -24.765144 -1.566138 7.254935 26.249036 11.213296 -5.180991 -24.869972 0.000000 0.000000 0.000000 -19.952697 -13.175486 6.005838 -38.559261 -20.502868 -0.404098 -11.153724 -60.416802 9.707524 0.000000 0.000000 0.000000 29.140644 -0.241698 -1.827841 43.314202 13.976165 -1.722797 6.806168 33.640575 3.507261 0.000000 0.000000 0.000000 
0.060965 0.911224 0.214456 0.125282 -12.715287 -4.238979 7.780914 0.088587 -14.558634 -6.100731 1.421316 12.695977 5.086554 11.234120 7.539172 0.000000 0.000000 0.000000 -6.939489 0.337972 -0.635470 3.652699 0.230137 16.344949 -3.343254 -3.593355 -7.620866 0.000000 0.000000 0.000000 6.178671 -1.716787 29.298654 -4.671129 1.550188 -25.125706 -1.377073 7.055367 26.648987 10.205600 -4.444118 -25.828977 0.000000 0.000000 0.000000 -20.509824 -13.969662 6.639217 -36.952399 -22.455405 0.036359 -8.286536 -61.018203 8.170098 0.000000 0.000000 0.000000 29.665464 0.613847 -1.464063 43.335204 14.479537 -1.533467 5.404158 32.602330 2.968369 0.000000 0.000000 0.000000 
0.074364 0.909809 0.233329 -0.008542 -13.868835 -2.882261 7.497151 0.073762 -15.973695 -6.963913 1.821528 14.312436 5.801058 12.402745 7.068211 0.000000 0.000000 0.000000 -7.701574 0.455601 -2.027758 3.493908 0.384824 17.681666 -3.706306 -4.411036 -7.768918 0.000000 0.000000 0.000000 5.388546 -1.444075 28.708438 -4.631999 1.516856 -25.363057 -1.576423 7.824496 26.359878 10.549630 -4.293471 -27.487413 0.000000 0.000000 0.000000 -19.679418 -14.592006 6.904240 -36.273906 -24.043868 0.478231 -5.940009 -60.413653 6.672656 0.000000 0.000000 0.000000 30.142865 0.477551 -1.594065 43.814230 14.991719 -1.320522 5.683071 32.007484 2.994187 0.000000 0.000000 0.000000 
0.086622 0.909831 0.251164 -0.032649 -13.628674 -2.176536 6.997656 -0.033915 -16.510786 -7.477505 2.039397 15.319394 5.565787 11.970040 6.436730 0.000000 0.000000 0.000000 -9.021620 0.552901 -3.564976 4.530228 0.281981 20.348851 -4.087272 -6.539458 -6.354881 0.000000 0.000000 0.000000 4.301664 -1.212123 29.327988 -4.750597 1.547603 -25.610104 -1.867809 6.962174 25.659280 10.302020 -4.108113 -28.028661 0.000000 0.000000 0.000000 -17.510298 -15.837752 7.488242 -35.482593 -25.748940 0.960345 -2.897252 -60.428948 4.927933 0.000000 0.000000 0.000000 29.932366 0.474219 -1.905146 45.038134 14.449907 -1.325148 7.056386 32.637073 3.399888 0.000000 0.000000 0.000000 
0.096806 0.910444 0.266494 -0.412015 -13.750095 -1.949765 6.883037 -0.056751 -15.981770 -8.175284 2.334802 16.181916 5.508322 11.825312 5.435884 0.000000 0.000000 0.000000 -9.736959 0.615014 -5.448031 6.205034 0.083778 24.821465 -3.986512 -7.307706 -4.728314 0.000000 0.000000 0.000000 2.903788 -0.848688 29.975033 -4.796511 1.554259 -25.724065 -1.670307 6.506954 25.817838 10.467630 -4.147368 -28.850253 0.000000 0.000000 0.000000 -16.635229 -17.032255 8.114525 -32.533721 -27.910982 1.230646 0.879704 -58.072027 2.506373 0.000000 0.000000 0.000000 30.552616 1.155128 -1.694796 45.873604 14.524755 -1.241009 7.660373 34.824861 3.845180 0.000000 0.000000 0.000000 
0.104360 0.911468 0.277709 -1.124988 -13.181641 -1.939640 7.279212 -0.008964 -15.856310 -8.442727 2.492611 17.405291 5.708643 12.196201 4.721121 0.000000 0.000000 0.000000 -10.994497 0.654529 -8.141432 8.608592 -0.510553 29.635530 -4.756401 -10.325692 -3.065416 0.000000 0.000000 0.000000 1.652101 -0.550327 31.476052 -4.647464 1.530124 -25.712292 -2.147119 5.448517 26.009793 10.215870 -3.833605 -30.528632 0.000000 0.000000 0.000000 -14.221196 -18.849895 8.784224 -29.485919 -29.330296 1.245301 5.495994 -55.937102 -0.150643 0.000000 0.000000 0.000000 31.020338 1.706700 -1.609701 46.424771 14.682677 -1.106991 11.173241 38.048307 5.408070 0.000000 0.000000 0.000000 
